<?xml version="1.0" encoding="UTF-8" standalone="no"?>
<!-- Created with Inkscape (http://www.inkscape.org/) -->

<svg
   xmlns:dc="http://purl.org/dc/elements/1.1/"
   xmlns:cc="http://creativecommons.org/ns#"
   xmlns:rdf="http://www.w3.org/1999/02/22-rdf-syntax-ns#"
   xmlns:svg="http://www.w3.org/2000/svg"
   xmlns="http://www.w3.org/2000/svg"
   xmlns:sodipodi="http://sodipodi.sourceforge.net/DTD/sodipodi-0.dtd"
   xmlns:inkscape="http://www.inkscape.org/namespaces/inkscape"
   width="170.40619mm"
   height="25.086428mm"
   viewBox="0 0 170.40619 25.086428"
   version="1.1"
   id="svg8"
   inkscape:version="0.92.4 (5da689c313, 2019-01-14)"
   sodipodi:docname="logo.svg">
  <defs
     id="defs2" />
  <sodipodi:namedview
     id="base"
     pagecolor="#ffffff"
     bordercolor="#666666"
     borderopacity="1.0"
     inkscape:pageopacity="0.0"
     inkscape:pageshadow="2"
     inkscape:zoom="1.979899"
     inkscape:cx="159.18799"
     inkscape:cy="94.588757"
     inkscape:document-units="mm"
     inkscape:current-layer="layer1"
     showgrid="false"
     inkscape:window-width="1839"
     inkscape:window-height="1051"
     inkscape:window-x="-9"
     inkscape:window-y="-9"
     inkscape:window-maximized="1"
     fit-margin-top="0"
     fit-margin-left="0"
     fit-margin-right="2.5"
     fit-margin-bottom="0" />
  <metadata
     id="metadata5">
    <rdf:RDF>
      <cc:Work
         rdf:about="">
        <dc:format>image/svg+xml</dc:format>
        <dc:type
           rdf:resource="http://purl.org/dc/dcmitype/StillImage" />
        <dc:title></dc:title>
      </cc:Work>
    </rdf:RDF>
  </metadata>
  <g
     inkscape:label="Layer 1"
     inkscape:groupmode="layer"
     id="layer1"
     transform="translate(-17.722507,-217.36601)">
    <rect
       style="fill:#354a5e;fill-opacity:1;stroke:none;stroke-width:0.25457197;stroke-miterlimit:4;stroke-dasharray:none;stroke-opacity:1"
       id="rect884-3-9"
       width="84.666664"
       height="24.946428"
       x="17.722507"
       y="217.36601" />
    <g
       aria-label="SOLID"
       style="font-style:normal;font-weight:normal;font-size:10.58333302px;line-height:1.25;font-family:sans-serif;letter-spacing:0px;word-spacing:0px;fill:#ffffff;fill-opacity:1;stroke:none;stroke-width:0.26458332"
       id="text817-9-2-0-1-2">
      <path
         d="m 32.305421,224.97423 q -2.4384,-1.3462 -4.2418,-1.3462 -1.2192,0 -1.905,0.4826 -0.6604,0.4826 -0.6604,1.4478 0,0.889 0.9652,1.5748 0.9906,0.6604 2.6162,1.27 1.3208,0.4826 2.2606,1.1176 0.9398,0.6096 1.5494,1.7018 0.635,1.0922 0.635,2.7686 0,1.4478 -0.762,2.6924 -0.7366,1.2192 -2.1844,1.9558 -1.4478,0.7112 -3.4544,0.7112 -1.6764,0 -3.3274,-0.4826 -1.651,-0.508 -3.0734,-1.524 l 1.6256,-2.8702 q 0.9652,0.7112 2.2098,1.1684 1.2446,0.4572 2.2352,0.4572 1.1684,0 2.032,-0.4826 0.8636,-0.508 0.8636,-1.6256 0,-1.4478 -2.7178,-2.5146 -1.6002,-0.635 -2.667,-1.2192 -1.0668,-0.5842 -1.8542,-1.6764 -0.762,-1.0922 -0.762,-2.7432 0,-2.413 1.5748,-3.8862 1.6002,-1.4732 4.2418,-1.6002 2.0828,0 3.4798,0.4826 1.397,0.4572 2.7178,1.3208 z"
         style="font-style:normal;font-variant:normal;font-weight:bold;font-stretch:normal;font-family:'Josefin Sans';-inkscape-font-specification:'Josefin Sans Bold';fill:#ffffff;fill-opacity:1;stroke-width:0.26458332"
         id="path910" />
      <path
         d="m 36.013424,229.82563 q 0,-2.54 1.27,-4.7498 1.2954,-2.2098 3.4798,-3.5052 2.2098,-1.3208 4.7752,-1.3208 2.5654,0 4.7498,1.3208 2.2098,1.2954 3.5052,3.5052 1.3208,2.2098 1.3208,4.7498 0,2.5908 -1.3208,4.7752 -1.2954,2.1844 -3.5052,3.4798 -2.1844,1.27 -4.7498,1.27 -2.5908,0 -4.7752,-1.27 -2.1844,-1.2954 -3.4798,-3.4798 -1.27,-2.1844 -1.27,-4.7752 z m 3.81,0 q 0,1.6256 0.762,2.9972 0.7874,1.3716 2.1082,2.1844 1.3462,0.7874 2.9718,0.7874 1.5748,0 2.8702,-0.7874 1.2954,-0.8128 2.032,-2.159 0.7366,-1.3716 0.7366,-3.0226 0,-1.6764 -0.762,-3.048 -0.762,-1.3716 -2.0828,-2.159 -1.2954,-0.8128 -2.8956,-0.8128 -1.6002,0 -2.921,0.8128 -1.2954,0.7874 -2.0574,2.159 -0.762,1.3716 -0.762,3.048 z"
         style="font-style:normal;font-variant:normal;font-weight:bold;font-stretch:normal;font-family:'Josefin Sans';-inkscape-font-specification:'Josefin Sans Bold';fill:#ffffff;fill-opacity:1;stroke-width:0.26458332"
         id="path912" />
      <path
         d="m 62.469112,220.45303 v 15.1384 h 8.7884 v 3.556 h -12.4714 v -18.6944 z"
         style="font-style:normal;font-variant:normal;font-weight:bold;font-stretch:normal;font-family:'Josefin Sans';-inkscape-font-specification:'Josefin Sans Bold';fill:#ffffff;fill-opacity:1;stroke-width:0.26458332"
         id="path914" />
      <path
         d="m 78.740985,220.45303 v 18.6944 h -3.683 v -18.6944 z"
         style="font-style:normal;font-variant:normal;font-weight:bold;font-stretch:normal;font-family:'Josefin Sans';-inkscape-font-specification:'Josefin Sans Bold';fill:#ffffff;fill-opacity:1;stroke-width:0.26458332"
         id="path916" />
      <path
         d="m 83.590799,220.45303 h 5.588 q 3.5814,0 5.8928,1.397 2.3114,1.3716 3.3528,3.5814 1.0668,2.1844 1.0668,4.699 0,2.6924 -1.27,4.7498 -1.27,2.0574 -3.429,3.175 -2.1336,1.0922 -4.699,1.0922 h -6.5024 z m 5.8674,15.1384 q 2.8702,0 4.5466,-1.4732 1.6764,-1.4732 1.6764,-4.2418 0,-2.2352 -0.9398,-3.556 -0.9144,-1.3208 -2.159,-1.8288 -1.2192,-0.508 -2.3114,-0.508 h -2.9972 v 11.6078 z"
         style="font-style:normal;font-variant:normal;font-weight:bold;font-stretch:normal;font-family:'Josefin Sans';-inkscape-font-specification:'Josefin Sans Bold';fill:#ffffff;fill-opacity:1;stroke-width:0.26458332"
         id="path918" />
    </g>
    <g
       aria-label="INJECT"
       style="font-style:normal;font-weight:normal;font-size:10.58333302px;line-height:1.25;font-family:sans-serif;letter-spacing:0px;word-spacing:0px;fill:#009688;fill-opacity:1;stroke:none;stroke-width:0.26458332"
       id="text817-9-2-0-9-0-4">
      <path
         d="m 106.46166,220.73544 v 18.034 h -1.2446 v -18.034 z"
         style="font-style:normal;font-variant:normal;font-weight:300;font-stretch:normal;font-family:'Josefin Sans';-inkscape-font-specification:'Josefin Sans Light';fill:#009688;fill-opacity:1;stroke-width:0.26458332"
         id="path897" />
      <path
         d="m 127.35038,220.73544 v 18.4658 h -0.0508 l -13.8938,-15.6464 0.0254,15.2146 h -1.2192 v -18.415 h 0.0762 l 13.8938,15.7734 -0.0254,-15.3924 z"
         style="font-style:normal;font-variant:normal;font-weight:300;font-stretch:normal;font-family:'Josefin Sans';-inkscape-font-specification:'Josefin Sans Light';fill:#009688;fill-opacity:1;stroke-width:0.26458332"
         id="path899" />
      <path
         d="m 135.73913,236.05164 q 0,1.9558 -0.7366,3.3782 -0.7112,1.4478 -1.9558,2.2098 -1.2446,0.762 -2.794,0.8128 v -1.1938 q 1.905,-0.1016 3.0734,-1.4986 1.1684,-1.3716 1.1684,-3.7846 v -15.24 h 1.2446 z"
         style="font-style:normal;font-variant:normal;font-weight:300;font-stretch:normal;font-family:'Josefin Sans';-inkscape-font-specification:'Josefin Sans Light';fill:#009688;fill-opacity:1;stroke-width:0.26458332"
         id="path901" />
      <path
         d="m 152.60671,220.73544 v 1.1938 h -9.8806 v 7.1628 h 8.89 v 1.1938 h -8.89 v 7.2898 h 10.2362 v 1.1938 h -11.4808 v -18.034 z"
         style="font-style:normal;font-variant:normal;font-weight:300;font-stretch:normal;font-family:'Josefin Sans';-inkscape-font-specification:'Josefin Sans Light';fill:#009688;fill-opacity:1;stroke-width:0.26458332"
         id="path903" />
      <path
         d="m 170.65778,237.57564 q -0.9906,0.6096 -2.2352,1.016 -1.2446,0.381 -2.667,0.381 -2.7178,0 -4.8006,-1.2192 -2.0828,-1.2192 -3.2512,-3.302 -1.143,-2.0828 -1.143,-4.572 0,-2.6162 1.1938,-4.7498 1.1938,-2.1336 3.2766,-3.3528 2.0828,-1.2446 4.6228,-1.2446 2.667,0 4.9276,1.3716 l -0.5334,1.143 q -2.1336,-1.3208 -4.3688,-1.3208 -2.1082,0 -3.9116,1.0922 -1.8034,1.0668 -2.8702,2.9464 -1.0414,1.8542 -1.0414,4.064 0,2.1844 0.9652,4.0132 0.9652,1.8034 2.7432,2.8702 1.778,1.0668 4.1148,1.0668 2.3368,0 4.3942,-1.2954 z"
         style="font-style:normal;font-variant:normal;font-weight:300;font-stretch:normal;font-family:'Josefin Sans';-inkscape-font-specification:'Josefin Sans Light';fill:#009688;fill-opacity:1;stroke-width:0.26458332"
         id="path905" />
      <path
         d="m 185.62869,220.73544 v 1.1938 h -5.3086 v 16.8402 h -1.2446 v -16.8402 h -5.2578 v -1.1938 z"
         style="font-style:normal;font-variant:normal;font-weight:300;font-stretch:normal;font-family:'Josefin Sans';-inkscape-font-specification:'Josefin Sans Light';fill:#009688;fill-opacity:1;stroke-width:0.26458332"
         id="path907" />
    </g>
    <rect
       style="fill:#354a5e;fill-opacity:1;stroke:none;stroke-width:0.17213252;stroke-miterlimit:4;stroke-dasharray:none;stroke-opacity:1"
       id="rect862"
       width="5.0781212"
       height="4.6472044"
       x="5.6570244"
       y="217.65175" />
    <rect
       style="fill:#009688;fill-opacity:1;stroke:none;stroke-width:0.17213252;stroke-miterlimit:4;stroke-dasharray:none;stroke-opacity:1"
       id="rect862-2"
       width="5.0781212"
       height="4.6472044"
       x="5.6570244"
       y="224.16042" />
    <rect
       style="fill:#3f478d;fill-opacity:1;stroke:none;stroke-width:0.17213252;stroke-miterlimit:4;stroke-dasharray:none;stroke-opacity:1"
       id="rect862-7"
       width="5.0781212"
       height="4.6472044"
       x="5.6570244"
       y="230.6691" />
    <rect
       style="fill:#fb4550;fill-opacity:1;stroke:none;stroke-width:0.17213252;stroke-miterlimit:4;stroke-dasharray:none;stroke-opacity:1"
       id="rect862-2-5"
       width="5.0781212"
       height="4.6472044"
       x="5.6570244"
       y="237.17778" />
  </g>
</svg>
